<?xml version="1.0" encoding="iso-8859-1"?>
<!-- Generator: Adobe Illustrator 19.0.0, SVG Export Plug-In . SVG Version: 6.00 Build 0)  -->
<svg version="1.1" id="Layer_1" xmlns="http://www.w3.org/2000/svg" xmlns:xlink="http://www.w3.org/1999/xlink" x="0px" y="0px"
	 viewBox="0 0 512 512" style="enable-background:new 0 0 512 512;" xml:space="preserve">
<path style="fill:#C7CFE2;" d="M504.426,239.504c-0.025-13.224-10.865-24.023-24.089-23.999l-19.92,0.038
	c-5.462-27.752-16.399-53.533-31.69-76.14l14.048-14.101c9.333-9.368,9.304-24.67-0.064-34.003l-22.712-22.627
	c-9.369-9.333-24.67-9.305-34.003,0.064l-14.048,14.101c-22.665-15.206-48.486-26.047-76.258-31.404l-0.037-19.92
	c-0.025-13.224-10.865-24.023-24.089-23.999l-32.059,0.061C226.28,7.6,215.481,18.441,215.505,31.665l0.037,19.92
	c-27.752,5.462-53.533,16.4-76.14,31.69l-14.101-14.047c-9.369-9.333-24.67-9.305-34.003,0.063L68.672,92.003
	c-9.333,9.369-9.304,24.67,0.064,34.003l14.101,14.048c-15.206,22.665-26.047,48.485-31.404,76.258l-19.92,0.038
	c-13.224,0.024-24.024,10.865-23.999,24.089l0.06,32.059c0.025,13.224,10.865,24.023,24.089,23.999l19.92-0.037
	c5.462,27.752,16.4,53.532,31.69,76.139L69.226,386.7c-9.333,9.369-9.304,24.67,0.064,34.003l22.712,22.627
	c9.369,9.333,24.67,9.304,34.003-0.064l14.048-14.101c22.664,15.206,48.485,26.047,76.258,31.404l0.037,19.92
	c0.025,13.224,10.865,24.024,24.089,23.999l32.059-0.06c13.224-0.025,24.024-10.866,23.999-24.089l-0.037-19.92
	c27.752-5.462,53.532-16.399,76.14-31.689l14.101,14.048c9.369,9.333,24.67,9.304,34.003-0.064l22.627-22.712
	c9.333-9.369,9.304-24.67-0.064-34.003l-14.101-14.048c15.206-22.664,26.047-48.486,31.404-76.258l19.92-0.037
	c13.224-0.025,24.024-10.866,23.999-24.089L504.426,239.504z M256.001,424.309c-92.955,0-168.309-75.354-168.309-168.309
	S163.046,87.691,256.001,87.691S424.31,163.045,424.31,256S348.955,424.309,256.001,424.309z"/>
<path style="fill:#AFB9D2;" d="M256.001,67.654C151.98,67.654,67.655,151.98,67.655,256s84.325,188.346,188.346,188.346
	c104.02,0,188.346-84.326,188.346-188.346S360.02,67.654,256.001,67.654z M256.001,424.309
	c-92.955,0-168.309-75.354-168.309-168.309S163.046,87.691,256.001,87.691S424.31,163.045,424.31,256
	S348.955,424.309,256.001,424.309z"/>
<g>
	<path style="fill:#E6AF78;" d="M299.801,302.267c-2.631-0.751-10.854-3.733-10.866-10.34l-0.061-19.384l-64.555,0.14l0.012,19.385
		c0.011,5.824-6.364,8.851-9.676,10.01l42.045,25.741L299.801,302.267z"/>
	<path style="fill:#E6AF78;" d="M288.935,291.928l-0.051-16.228c-8.478,16.481-25.641,27.763-45.451,27.763
		c-7.958,0-15.49-1.82-22.206-5.066c-2.09,1.871-4.777,3.054-6.571,3.682l42.045,25.741l43.1-25.552
		C297.17,301.516,288.947,298.534,288.935,291.928z"/>
</g>
<path style="fill:#D29B6E;" d="M288.884,275.699l-0.01-3.156l-64.555,0.14l0.012,19.385c0.005,2.669-1.336,4.745-3.105,6.329
	c6.715,3.245,14.247,5.066,22.206,5.066C263.243,303.462,280.406,292.181,288.884,275.699z"/>
<path style="fill:#785550;" d="M304.606,151.405c-24.424,3.535-56.485-19.43-80.357,0.15c-14.456,0.027-23.645,11.556-23.616,26.923
	c0.027,14.483,8.024,43.227,8.024,43.227l0.015,7.761c-0.027-14.097,8.256-37.823,8.256-37.823
	c41.44-0.078,75.561,11.768,87.786,16.615l-0.001-0.751l0.001,0.751c0.886,0.352,1.651,0.664,2.301,0.935
	C313.555,181.188,307.533,158.023,304.606,151.405z"/>
<path style="fill:#F0C087;" d="M208.67,229.467c0.056,30.006,21.21,57.994,48.043,57.944c26.833-0.051,48.098-26.599,48.042-56.605
	l-0.042-22.547c-12.225-4.849-46.347-16.695-87.786-16.616C216.926,191.644,208.644,215.37,208.67,229.467z"/>
<path style="fill:#E6AF78;" d="M225.991,236.418c-0.818-38.966,5.659-37.005,5.659-37.005c11.762-2.714,29.2-2.021,48.254,0.729
	c-16.389-4.396-38.395-8.546-62.98-8.5c0,0-8.282,23.727-8.256,37.823c0.052,27.846,18.279,53.94,42.349,57.514
	C240.592,278.745,226.484,259.875,225.991,236.418z"/>
<path style="fill:#B4E1FA;" d="M352.958,341.854c-0.025-13.447-8.529-27.786-23.163-31.855l-29.99-7.729
	c-0.001,0-0.003-0.001-0.004-0.001l-43.1,25.552l-42.045-25.741c-0.448,0.156-0.844,0.282-1.156,0.372l-29.961,7.841
	c-14.619,4.126-23.067,18.496-23.042,31.943l0.016,8.656c0.009,5.063,4.705,9.16,10.487,9.149l171.52-0.342
	c5.783-0.011,10.462-4.125,10.453-9.188L352.958,341.854z"/>
<g>
	<path style="fill:#A0D2F0;" d="M195.533,359.565v-9.649c0-4.942-2.24-9.652-6.162-12.955l-20.572-17.159
		c-5.391,6.279-8.317,14.515-8.302,22.432l0.016,8.656c0.006,3.426,2.162,6.405,5.345,7.973c1.335,0.445,2.622,0.703,3.669,0.703
		h26.007V359.565z"/>
	<path style="fill:#A0D2F0;" d="M352.974,350.509l-0.016-8.656c-0.013-6.909-2.269-14.05-6.44-19.916l-18.5,15.025
		c-3.922,3.303-6.162,8.013-6.162,12.955v9.649h22.349C349.183,358.85,352.983,355.07,352.974,350.509z"/>
</g>
<path style="fill:#694B4B;" d="M304.606,151.405c-10.604,1.535-22.65-1.926-34.838-4.731c-15.883-3.656-32.012-6.198-45.52,4.881
	c-0.115,0-0.226,0.007-0.341,0.009c-1.673,1.727,1.492,6.631,1.492,6.631s-6.345,3.006-9.017,15.028
	c-1.462,6.578-1.069,13.63,0.988,18.423c18.812,0.003,36.093,2.455,50.49,5.58c17.164,3.726,30.228,8.405,36.852,11.033
	c0.886,0.352,1.651,0.664,2.301,0.935C313.555,181.188,307.533,158.023,304.606,151.405z"/>
<path d="M511.939,239.49c-0.032-17.369-14.188-31.498-31.617-31.498l-13.817,0.025c-5.457-24.098-14.905-46.8-28.15-67.633
	l9.742-9.78c12.282-12.327,12.245-32.346-0.083-44.629l-22.712-22.627c-5.938-5.915-13.847-9.172-22.273-9.172
	c-8.472,0-16.411,3.287-22.357,9.256l-9.742,9.779c-20.884-13.166-43.621-22.528-67.738-27.895l-0.026-13.817
	C303.133,14.131,288.976,0,271.548,0l-32.059,0.061c-8.403,0.016-16.315,3.32-22.277,9.305c-5.963,5.986-9.237,13.91-9.222,22.312
	l0.026,13.818c-24.099,5.457-46.801,14.906-67.633,28.15l-9.779-9.743c-5.937-5.915-13.847-9.172-22.273-9.172
	c-8.472,0-16.411,3.287-22.357,9.256L63.348,86.699c-12.281,12.328-12.242,32.348,0.084,44.63l9.78,9.743
	c-13.165,20.883-22.528,43.619-27.895,67.738l-13.817,0.025c-8.403,0.016-16.315,3.32-22.277,9.305s-9.238,13.909-9.222,22.311
	l0.06,32.06c0.033,17.368,14.19,31.498,31.618,31.498l13.818-0.026c5.457,24.098,14.905,46.8,28.149,67.633l-9.743,9.78
	c-12.281,12.328-12.242,32.348,0.084,44.63l22.712,22.626c5.937,5.915,13.847,9.172,22.273,9.172c8.472,0,16.411-3.287,22.357-9.256
	l9.743-9.779c20.883,13.165,43.62,22.528,67.737,27.895l0.026,13.817C208.868,497.87,223.025,512,240.393,512
	c0.005,0,0.055,0,0.059,0l32.058-0.061c8.403-0.016,16.315-3.32,22.277-9.305c5.963-5.986,9.238-13.91,9.222-22.312l-0.026-13.817
	c24.099-5.457,46.797-14.904,67.633-28.15l9.779,9.743c5.937,5.914,13.846,9.171,22.272,9.172c0.001,0,0.001,0,0.002,0
	c8.47,0,16.409-3.287,22.356-9.256l22.627-22.712c12.281-12.328,12.242-32.348-0.084-44.63l-9.779-9.742
	c13.165-20.884,22.528-43.621,27.895-67.738l13.817-0.026c17.401-0.032,31.532-14.215,31.499-31.618L511.939,239.49z
	 M480.473,288.137l-19.92,0.038c-3.596,0.007-6.682,2.561-7.364,6.09c-5.099,26.436-15.282,51.162-30.266,73.495
	c-2.004,2.986-1.61,6.972,0.937,9.509l14.101,14.047c6.457,6.433,6.477,16.92,0.044,23.378l-22.626,22.711
	c-3.107,3.118-7.264,4.835-11.711,4.835h-0.001c-4.423-0.001-8.566-1.702-11.666-4.791l-14.101-14.047
	c-2.547-2.537-6.535-2.914-9.512-0.901c-22.277,15.068-46.966,25.344-73.382,30.542c-3.527,0.693-6.07,3.79-6.063,7.386l0.038,19.92
	c0.008,4.389-1.711,8.537-4.841,11.677c-3.13,3.142-7.27,4.876-11.659,4.884l-32.058,0.061l-0.031,7.514v-7.514
	c-9.098,0-16.513-7.402-16.53-16.499l-0.037-19.92c-0.007-3.597-2.56-6.683-6.091-7.365c-26.435-5.099-51.162-15.283-73.494-30.267
	c-1.275-0.856-2.734-1.273-4.184-1.273c-1.944,0-3.872,0.752-5.326,2.211l-14.048,14.101c-3.107,3.117-7.265,4.834-11.712,4.834
	c-4.422,0-8.566-1.701-11.666-4.791l-22.712-22.626c-6.457-6.433-6.477-16.921-0.044-23.378l14.048-14.101
	c2.538-2.547,2.915-6.534,0.901-9.512c-15.068-22.276-25.343-46.965-30.541-73.381c-0.693-3.523-3.783-6.063-7.373-6.063
	c-0.005,0-0.009,0-0.014,0l-19.951,0.038c-9.098,0-16.513-7.402-16.53-16.499l-0.06-32.059c-0.008-4.389,1.711-8.537,4.841-11.677
	c3.13-3.142,7.269-4.876,11.659-4.884l19.92-0.037c3.596-0.007,6.682-2.561,7.364-6.09c5.099-26.437,15.282-51.163,30.266-73.495
	c2.004-2.985,1.61-6.972-0.937-9.509l-14.102-14.048c-6.457-6.433-6.477-16.921-0.044-23.378l22.627-22.712
	c3.106-3.117,7.264-4.834,11.711-4.834c4.422,0,8.566,1.701,11.666,4.791L134.1,88.596c2.548,2.537,6.535,2.917,9.513,0.9
	c22.274-15.066,46.963-25.342,73.381-30.541c3.527-0.693,6.07-3.79,6.063-7.386l-0.037-19.921c-0.008-4.389,1.711-8.536,4.84-11.676
	c3.129-3.141,7.27-4.876,11.659-4.884l32.088-0.06c9.098,0,16.513,7.402,16.53,16.5l0.038,19.919
	c0.007,3.597,2.56,6.683,6.091,7.365c26.434,5.099,51.161,15.282,73.495,30.267c2.986,2.004,6.972,1.61,9.509-0.938l14.048-14.102
	c3.106-3.117,7.264-4.834,11.711-4.834c4.422,0,8.566,1.701,11.666,4.791l22.712,22.627c6.457,6.433,6.477,16.92,0.043,23.377
	l-14.048,14.101c-2.538,2.547-2.915,6.534-0.901,9.512c15.068,22.276,25.343,46.965,30.542,73.381
	c0.693,3.524,3.783,6.063,7.373,6.063c0.004,0,0.009,0,0.014,0l19.952-0.037c9.098,0,16.512,7.402,16.529,16.498l0.061,32.059
	C496.989,280.691,489.588,288.121,480.473,288.137z"/>
<path d="M412.114,192.532c-3.91,1.39-5.953,5.686-4.563,9.596c6.099,17.158,9.21,35.182,9.244,53.569
	c0.081,42.951-16.569,83.361-46.882,113.788c-30.313,30.428-70.661,47.23-113.611,47.31c-0.103,0-0.205,0-0.308,0
	c-88.522,0-160.623-71.932-160.79-160.492c-0.081-42.951,16.569-83.361,46.882-113.789c30.313-30.427,70.661-47.229,113.611-47.309
	c0.102,0,0.199,0,0.303,0c38.031,0,74.922,13.514,103.898,38.069c3.166,2.684,7.908,2.293,10.589-0.875
	c2.683-3.166,2.291-7.908-0.875-10.589c-31.689-26.856-72.023-41.633-113.612-41.633c-0.109,0-0.221,0-0.331,0
	c-46.963,0.088-91.082,18.46-124.228,51.731S80.091,209.365,80.179,256.33c0.182,96.843,79.014,175.502,175.817,175.492
	c0.106,0,0.229,0,0.337,0c46.963-0.088,91.082-18.46,124.228-51.731s51.351-77.457,51.263-124.421
	c-0.038-20.099-3.44-39.805-10.112-58.576C420.32,193.184,416.024,191.138,412.114,192.532z"/>
<path d="M392.826,171.492c1.422,2.297,3.88,3.561,6.396,3.561c1.349,0,2.715-0.364,3.947-1.126
	c3.528-2.184,4.618-6.816,2.434-10.343c-3.559-5.749-7.493-11.353-11.693-16.657c-2.576-3.252-7.302-3.801-10.555-1.224
	c-3.253,2.576-3.801,7.302-1.224,10.555C385.972,161.108,389.571,166.233,392.826,171.492z"/>
<path d="M210.984,295.522l-29.858,7.814c-0.046,0.013-0.092,0.024-0.138,0.038c-18.759,5.294-28.544,23.723-28.515,39.188
	l0.016,8.657c0.018,9.187,8.079,16.648,17.98,16.648c0.012,0,0.024,0,0.037,0l85.568-0.17c0.059,0.001,0.117,0.009,0.176,0.009
	c0.005,0,0.01,0,0.015,0c0.062,0,0.122-0.008,0.184-0.01l85.575-0.17c9.916-0.019,17.97-7.517,17.953-16.716l-0.016-8.657
	c-0.029-15.466-9.884-33.858-28.663-39.081c-0.046-0.013-0.092-0.025-0.138-0.037l-29.886-7.702
	c-2.875-0.841-5.113-2.41-5.337-3.116l-0.051-16.531c0.063-0.075,0.13-0.145,0.192-0.22c10.142-12.168,15.71-27.921,15.679-44.36
	l-0.023-12.169c10.143-33.184,2.924-61.906-0.768-70.256c-0.011-0.025-0.025-0.047-0.036-0.072
	c-0.069-0.152-0.146-0.301-0.225-0.448c-0.041-0.076-0.079-0.153-0.123-0.227c-0.077-0.132-0.161-0.259-0.246-0.387
	c-0.055-0.083-0.108-0.167-0.166-0.247c-0.078-0.107-0.162-0.208-0.245-0.312c-0.073-0.09-0.144-0.182-0.221-0.269
	c-0.079-0.088-0.164-0.171-0.247-0.256c-0.087-0.089-0.172-0.179-0.263-0.263c-0.09-0.083-0.185-0.159-0.279-0.237
	c-0.09-0.075-0.177-0.152-0.271-0.223c-0.115-0.087-0.236-0.167-0.357-0.248c-0.075-0.051-0.148-0.105-0.226-0.153
	c-0.151-0.094-0.31-0.179-0.468-0.262c-0.05-0.026-0.099-0.056-0.15-0.082c-0.184-0.092-0.375-0.173-0.566-0.25
	c-0.028-0.011-0.055-0.024-0.083-0.035c-0.199-0.077-0.404-0.143-0.61-0.203c-0.025-0.007-0.049-0.017-0.074-0.023
	c-0.191-0.053-0.386-0.095-0.582-0.133c-0.046-0.009-0.09-0.021-0.136-0.028c-0.165-0.029-0.333-0.048-0.501-0.065
	c-0.082-0.009-0.164-0.021-0.247-0.026c-0.131-0.009-0.264-0.011-0.397-0.013c-0.124-0.003-0.247-0.006-0.372-0.002
	c-0.101,0.003-0.202,0.012-0.305,0.02c-0.156,0.011-0.312,0.023-0.467,0.044c-0.028,0.004-0.055,0.004-0.082,0.008
	c-7.818,1.135-17.288-1.117-27.314-3.497c-17.583-4.176-37.42-8.877-54.676,3.695c-16.657,1.398-28.456,15.405-28.421,34.327
	c0.026,13.919,6.571,38.858,8.025,44.229l0.008,4.007v0.014c0,0,0,0.003,0,0.004l0.005,2.733
	c0.032,17.234,6.047,33.146,15.651,44.972l0.012,17.643C216.085,293.092,213.854,294.671,210.984,295.522z M280.898,288.446
	l0.012,3.81c0.008,4.061,1.557,7.439,3.934,10.158l-28.639,16.975l-28.579-17.074c2.258-2.687,3.717-5.99,3.71-9.936l-0.003-4.333
	c7.515,4.577,15.953,7.195,24.801,7.195c0.027,0,0.056,0,0.083,0C264.927,295.222,273.317,292.867,280.898,288.446z
	 M170.475,352.838c-0.003,0-0.005,0-0.009,0c-1.828,0-2.949-1.067-2.95-1.649l-0.016-8.657c-0.019-9.786,5.988-21.392,17.505-24.679
	l27.35-7.158l36.329,21.705l0.038,20.282L170.475,352.838z M344.933,342.181l0.016,8.656c0.001,0.583-1.119,1.657-2.954,1.66
	l-78.246,0.155l-0.038-20.244l36.73-21.771l26.893,6.931C338.865,320.811,344.915,332.395,344.933,342.181z M207.635,178.778
	c-0.017-8.933,4.195-19.374,16.117-19.396c0.073,0,0.145-0.009,0.218-0.011c0.17-0.005,0.341-0.01,0.511-0.027
	c0.109-0.011,0.215-0.03,0.323-0.046c0.135-0.019,0.271-0.036,0.406-0.063c0.12-0.024,0.237-0.057,0.356-0.086
	c0.119-0.03,0.239-0.057,0.358-0.092c0.123-0.037,0.241-0.083,0.362-0.126c0.11-0.04,0.221-0.077,0.331-0.122
	c0.125-0.052,0.245-0.112,0.367-0.17c0.099-0.047,0.2-0.091,0.298-0.144c0.133-0.071,0.26-0.151,0.389-0.23
	c0.081-0.05,0.164-0.095,0.243-0.148c0.158-0.106,0.309-0.221,0.458-0.339c0.043-0.034,0.089-0.063,0.132-0.098
	c11.967-9.817,27.395-6.152,43.729-2.274c8.729,2.073,17.694,4.202,26.366,4.202c0.093,0,0.185-0.004,0.278-0.004
	c2.176,7.799,4.394,21.975,2.039,38.878c-12.614-4.624-43.284-14.037-84.014-14.037c-0.165,0-0.336,0-0.501,0
	c-0.021,0-0.041,0.003-0.062,0.003c-0.162,0.001-0.323,0.013-0.484,0.025c-0.093,0.007-0.187,0.01-0.28,0.021
	c-0.128,0.015-0.255,0.038-0.383,0.059c-0.122,0.02-0.246,0.037-0.367,0.063c-0.079,0.017-0.156,0.042-0.235,0.061
	c-0.163,0.041-0.326,0.081-0.485,0.132c-0.029,0.009-0.058,0.022-0.087,0.032c-0.201,0.068-0.401,0.141-0.594,0.224
	c-0.007,0.003-0.014,0.007-0.021,0.011c-0.212,0.093-0.42,0.193-0.621,0.306c-0.041,0.022-0.078,0.049-0.118,0.072
	c-0.165,0.095-0.329,0.192-0.486,0.3c-0.113,0.077-0.219,0.163-0.329,0.246c-0.079,0.061-0.161,0.117-0.238,0.18
	c-0.147,0.122-0.287,0.253-0.424,0.388c-0.034,0.032-0.07,0.062-0.104,0.095c-0.131,0.131-0.253,0.273-0.376,0.415
	c-0.036,0.042-0.076,0.082-0.112,0.125c-0.096,0.118-0.184,0.243-0.273,0.368c-0.056,0.077-0.115,0.151-0.167,0.23
	c-0.063,0.096-0.12,0.197-0.179,0.297c-0.071,0.117-0.143,0.233-0.207,0.355c-0.041,0.078-0.076,0.159-0.114,0.238
	c-0.072,0.149-0.143,0.299-0.206,0.454c-0.008,0.019-0.017,0.036-0.025,0.054c-0.05,0.126-0.258,0.661-0.575,1.508
	C208.123,186.19,207.641,181.996,207.635,178.778z M215.667,227.017c-0.012-8.158,3.459-20.114,5.987-27.496
	c36.932,0.712,64.765,9.632,75.042,13.445l0.009,4.8c0,0.025,0,0.05,0,0.075l0.025,13.294c0.05,26.562-18.516,49.035-40.542,49.077
	c-0.018,0-0.036,0-0.055,0c-21.509,0-40.41-23.555-40.46-50.446L215.667,227.017z"/>
<g>
</g>
<g>
</g>
<g>
</g>
<g>
</g>
<g>
</g>
<g>
</g>
<g>
</g>
<g>
</g>
<g>
</g>
<g>
</g>
<g>
</g>
<g>
</g>
<g>
</g>
<g>
</g>
<g>
</g>
</svg>
